<?xml version="1.0" standalone="no"?><!DOCTYPE svg PUBLIC "-//W3C//DTD SVG 1.1//EN" "http://www.w3.org/Graphics/SVG/1.1/DTD/svg11.dtd"><svg t="1495764673960" class="icon" style="" viewBox="0 0 1024 1024" version="1.1" xmlns="http://www.w3.org/2000/svg" p-id="1071" xmlns:xlink="http://www.w3.org/1999/xlink" width="200" height="200"><defs><style type="text/css"></style></defs><path d="M751.202 638.383s83.744 276.374 43.306 316.813c-40.439 40.439-281.404-135.595-281.404-135.595S268.805 995.634 228.366 955.195c-40.439-40.439 46.638-316.813 46.638-316.813S26.173 429.493 66.612 389.054s299.339-43.916 299.339-43.916S474.334 65.586 513.103 65.565c38.773-0.02 147.152 279.573 147.152 279.573s255.568 3.478 296.007 43.916-205.06 249.329-205.06 249.329z m-128.559-208.89c-40.439-40.439-93.514-242.632-111.206-242.632S440.669 389.054 400.23 429.493c0 0-212.303 0-212.303 20.219s161.755 101.097 161.755 161.755-60.658 222.413-40.439 242.632c20.219 20.219 142.797-121.316 202.193-121.316 59.392 0 181.974 141.535 202.193 121.316 20.219-20.219-40.439-181.974-40.439-242.632 0-60.658 161.755-141.535 161.755-161.755 0.001-20.219-212.302-20.219-212.302-20.219z" p-id="1072" fill="#ffffff"></path></svg>