<?xml version="1.0" standalone="no"?><!DOCTYPE svg PUBLIC "-//W3C//DTD SVG 1.1//EN" "http://www.w3.org/Graphics/SVG/1.1/DTD/svg11.dtd"><svg t="1495764278989" class="icon" style="" viewBox="0 0 1024 1024" version="1.1" xmlns="http://www.w3.org/2000/svg" p-id="858" xmlns:xlink="http://www.w3.org/1999/xlink" width="200" height="200"><defs><style type="text/css"></style></defs><path d="M880.45 880.762s0 81.958-81.958 81.958H224.786c-81.958 0-81.958-81.958-81.958-81.958S99.256 566.518 374.34 488.421c-41.237-44.974-67.595-109.225-67.595-181.365 0-135.792 91.736-245.874 204.895-245.874s204.895 110.082 204.895 245.874c0 72.139-26.354 136.39-67.595 181.365 275.083 78.097 231.51 392.341 231.51 392.341zM511.64 143.14s-122.937 0-122.937 163.916S511.64 470.972 511.64 470.972s122.937 0 122.937-163.916S511.64 143.14 511.64 143.14z m0 409.79c-327.832 0-286.853 327.832-286.853 327.832h573.706c-0.001 0 40.978-327.832-286.853-327.832z" p-id="859" fill="#ffffff"></path></svg>